<?xml version="1.0" encoding="UTF-8"?>
<svg width="150px" height="62px" viewBox="0 0 150 62" version="1.1" xmlns="http://www.w3.org/2000/svg" xmlns:xlink="http://www.w3.org/1999/xlink">
    <title>SMA_Main_Logo_Horizontal_Color</title>
    <g id="Symbols" stroke="none" stroke-width="1" fill="none" fill-rule="evenodd">
        <g id="Navigation" transform="translate(-51.000000, -92.000000)" fill-rule="nonzero">
            <g id="SMA_Main_Logo_Horizontal_Color" transform="translate(51.000000, 92.890995)">
                <path d="M74.541348,10.3988111 C73.8692364,9.73062191 73.0974886,9.16697087 72.2526624,8.72725483 C71.4197525,8.30151471 70.4931102,8.0836291 69.5543564,8.09278986 C68.8523276,8.07858901 68.1710546,8.32721792 67.6485598,8.78830566 C67.1191718,9.25198286 66.855002,9.88619023 66.8560503,10.6909278 C66.8560503,11.4606319 67.1396136,12.0273485 67.70674,12.3910775 C68.2738665,12.7548065 69.3397184,13.166964 70.9042956,13.62755 C71.8362435,13.9100977 72.7395423,14.2769413 73.6026017,14.7233738 C75.4646492,15.6718976 76.9286123,17.2331257 77.7389036,19.1344895 C78.1880971,20.1540642 78.4129559,21.3552457 78.4134801,22.7380342 C78.4134801,24.5834694 78.0809092,26.1597143 77.4157673,27.4667688 C76.7506254,28.7738233 75.9098945,29.8304921 74.8935744,30.6367753 C73.8763308,31.4429224 72.711002,32.0494815 71.4609392,32.4234781 C70.2750245,32.7944649 69.0392718,32.9887885 67.7947967,33 C65.7766616,33.0028639 63.7761025,32.6313454 61.8981488,31.9049324 C60.0002144,31.1754136 58.3674982,30.1566118 57,28.8485269 L61.5750125,23.0819281 C62.3584024,23.8981693 63.2589714,24.5974712 64.2481595,25.1576564 C65.2028452,25.6959965 66.2861591,25.9747374 67.3867486,25.9652275 C68.246873,25.9652275 68.9214495,25.715357 69.4104782,25.215616 C69.8995068,24.715875 70.1437591,24.0626054 70.1432349,23.255807 C70.1432349,22.2944497 69.7522217,21.5924939 68.9701951,21.1499398 C68.1881686,20.7073856 67.0140805,20.2375261 65.4479308,19.7403611 C64.6032472,19.4615845 63.779828,19.12405 62.9839182,18.7303176 C62.1528224,18.321564 61.4063227,17.7644355 60.782503,17.0873547 C60.1074552,16.349861 59.5708075,15.5005478 59.1974841,14.5788611 C58.7870774,13.599987 58.581612,12.3985478 58.5810878,10.9745437 C58.5810878,9.28418266 58.8955757,7.81381075 59.5245515,6.5634279 C60.107534,5.37006544 60.9376886,4.30955457 61.9618326,3.44983551 C62.9468312,2.63118954 64.0817304,2.00483999 65.305625,1.60440026 C66.5044517,1.20693952 67.7608335,1.00285775 69.0260167,1 C70.8717877,0.994284462 72.7024728,1.32686133 74.4242013,1.98075159 C76.1017177,2.6086516 77.6514022,3.52651204 79,4.69094481 L74.541348,10.3988111 Z" id="Path" fill="#F37D20"></path>
                <path d="M92.7996728,2.12352883 L92.7996728,6.49263179 L92.9145349,6.49263179 C93.2979226,4.99670326 94.1032424,3.70754624 95.3304942,2.62516072 C96.5577459,1.5427752 98.1295841,1.00158243 100.046009,1.00158243 C102.192158,1.00158243 103.793032,1.53301685 104.848633,2.59588567 C105.904234,3.65875449 106.642487,4.95766986 107.063391,6.49263179 L107.178253,6.49263179 C107.452783,5.77255688 107.809907,5.08861008 108.242077,4.45524676 C108.692258,3.7963978 109.235226,3.20977973 109.853231,2.71456829 C110.514594,2.18735257 111.251916,1.76906167 112.038695,1.47473049 C112.860974,1.1582435 113.791177,1 114.829305,1 C116.554549,1 117.953966,1.36422378 119.027554,2.09267135 C120.098408,2.81626179 120.955373,3.82746201 121.505184,5.01621996 C122.079752,6.23733228 122.47239,7.63514984 122.6831,9.20967263 C122.897174,10.833977 123.003031,12.4713791 123,14.1104737 L123,33 L114.083857,33 L114.083857,14.04955 C114.083857,12.7503709 113.892163,11.6086441 113.508776,10.6243695 C113.125388,9.64009495 112.3969,9.14848515 111.323312,9.1495401 C110.210151,9.1495401 109.356779,9.67068869 108.763197,10.7129859 C108.169614,11.755283 107.872565,13.1230343 107.872051,14.8162397 L107.872051,33 L99.0130204,33 L99.0130204,14.04955 C99.0130204,12.7503709 98.8308341,11.6086441 98.4664616,10.6243695 C98.1020892,9.64009495 97.3825948,9.14848515 96.3079786,9.1495401 C95.195332,9.1495401 94.3419603,9.67068869 93.7478636,10.7129859 C93.1537668,11.755283 92.8567184,13.1230343 92.8567184,14.8162397 L92.8567184,33 L84,33 L84,2.12352883 L92.7996728,2.12352883 Z" id="Path" fill="#F37D20"></path>
                <path d="M142.493654,28.4776275 C142.132806,29.7996128 141.33402,30.9559857 140.231084,31.7530651 C139.105045,32.5817654 137.644266,32.9974103 135.848746,33 C134.932243,32.9929094 134.022939,32.8354853 133.156234,32.5338561 C132.216489,32.2107942 131.356548,31.6866647 130.634931,30.9971352 C129.87076,30.2823812 129.24069,29.3355912 128.744721,28.1567652 C128.248752,26.9779391 128.000512,25.5189088 128,23.7796742 C128,21.6929034 128.372361,19.9730915 129.117082,18.6202384 C129.861803,17.2673853 130.835826,16.1854136 132.039152,15.3743232 C133.284294,14.5455362 134.674592,13.9653825 136.135118,13.665129 C137.660658,13.3375081 139.215904,13.1724219 140.775421,13.1725703 L141.92091,13.1725703 L141.92091,12.7064265 C141.92091,11.2391091 141.586425,10.177337 140.917456,9.52111001 C140.248486,8.86488302 139.360963,8.53676953 138.254886,8.53676953 C137.204993,8.52252904 136.169126,8.78177398 135.246827,9.28959188 C134.364685,9.77904989 133.57838,10.4275462 132.926675,11.2031125 L128.974279,5.63735463 C130.19552,4.16900143 131.713625,3.02953863 133.528594,2.21896623 C135.343564,1.40839383 137.148553,1.00207175 138.943561,1 C140.966336,1 142.685081,1.30920877 144.099795,1.92762631 C145.465357,2.5090428 146.65219,3.44981615 147.537028,4.65223725 C148.413803,5.850227 149.043872,7.30899836 149.427237,9.02855131 C149.810602,10.7481043 150.001517,12.7289568 150,14.9711088 L150,32.2464007 L142.610353,32.2464007 L142.610353,28.4776275 L142.493654,28.4776275 Z M142.207282,19.0288706 L140.60498,19.0288706 C139.970693,19.0276109 139.337655,19.0858695 138.714003,19.2029183 C138.138209,19.3044311 137.591174,19.5316331 137.110933,19.8687271 C136.651286,20.1984434 136.277681,20.6362247 136.022258,21.1444075 C135.754056,21.6664886 135.620211,22.3333333 135.620722,23.1449416 C135.620722,24.3429314 135.878688,25.2221305 136.394619,25.782539 C136.910549,26.3429476 137.53115,26.6231518 138.256421,26.6231518 C138.895991,26.6372564 139.524858,26.4555542 140.060643,26.1018476 C140.573221,25.7547705 140.994782,25.2868576 141.289048,24.7383768 C141.609768,24.1383281 141.842531,23.4942635 141.980027,22.82641 C142.130678,22.1309657 142.207887,21.4212927 142.210353,20.7093399 L142.207282,19.0288706 Z" id="Shape" fill="#F37D20"></path>
                <path d="M60.9926008,48.624686 C60.9972654,48.982641 60.9425598,49.3384284 60.8312986,49.6737427 C60.7347291,49.9654093 60.5864423,50.2318418 60.3954865,50.4567826 C60.2106629,50.6681029 59.9886026,50.8334333 59.7436182,50.9421173 C59.4866821,51.0551835 59.2129224,51.1117954 58.9371069,51.108899 C58.5563783,51.1104253 58.1800055,51.0176177 57.8346282,50.8370448 C57.5094088,50.6745758 57.2232775,50.4269998 57,50.1148802 L57.5704772,49.3260029 C57.7346911,49.5676768 57.946775,49.7627229 58.1897891,49.8955623 C58.4210786,50.0295324 58.677065,50.1003729 58.9371069,50.1023716 C59.2362475,50.1130773 59.5254528,49.9807011 59.7332593,49.7379536 C59.9409298,49.4950083 60.0450117,49.143377 60.045505,48.6830595 C60.0493194,48.4854554 60.016298,48.2891483 59.9485757,48.1068289 C59.8830265,47.9407682 59.7918342,47.789145 59.6792453,47.6590201 C59.5607104,47.52146 59.4289299,47.3992316 59.2863485,47.2946021 C59.1325212,47.1805672 58.9726467,47.0772474 58.8076212,46.9852221 C58.6037248,46.8748669 58.4075736,46.7471885 58.2208657,46.6032921 C58.0398676,46.463496 57.8755017,46.2981488 57.7317795,46.1112862 C57.5832975,45.9168502 57.4683637,45.6928536 57.3928968,45.4508307 C57.3051216,45.159974 57.263299,44.8540183 57.2693304,44.5468741 C57.2621991,44.1778852 57.3205621,43.8110102 57.4409915,43.4677967 C57.5443925,43.1797653 57.7004476,42.9194995 57.8990011,42.7039366 C58.0852858,42.5041529 58.3069221,42.3509824 58.5493896,42.25446 C58.7870209,42.1594855 59.0371789,42.1104288 59.2893082,42.1093599 C59.6265556,42.1033493 59.9614441,42.1736741 60.2741398,42.3161692 C60.5590233,42.4487496 60.808949,42.6615118 61,42.9340953 L60.4199038,43.7129657 C60.1653632,43.3186741 59.7543108,43.0917232 59.3218646,43.1067143 C59.1842125,43.1084188 59.0478311,43.1366217 58.918609,43.1901052 C58.7836556,43.2431878 58.6604814,43.3285284 58.5575287,43.4402777 C58.445375,43.5663194 58.3574699,43.7170556 58.2992971,43.883083 C58.2308454,44.0881418 58.198184,44.3061721 58.2031077,44.5251925 C58.199313,44.7183728 58.2302719,44.9104183 58.2941176,45.0897484 C58.3549011,45.2457864 58.4384331,45.3892556 58.5412505,45.5142078 C58.6493891,45.6429029 58.7705815,45.7568188 58.9023307,45.8536085 C59.0450994,45.9586338 59.1933516,46.0538718 59.3462819,46.1388051 C59.5494397,46.2542445 59.7470282,46.3817332 59.9382168,46.5207352 C60.1318697,46.6617706 60.3088867,46.829891 60.4650388,47.0210802 C60.6269296,47.2224663 60.7563853,47.4541567 60.8475768,47.7057189 C60.9498016,47.9975896 61.0000841,48.3092732 60.9955605,48.6230181" id="Path" fill="#5B6670"></path>
                <polygon id="Path" fill="#5B6670" points="63 50.1090047 63 42.1090047 66.8696429 42.1090047 66.8696429 43.0125689 64.1294643 43.0125689 64.1294643 45.5321377 66.6875 45.5321377 66.6875 46.3797632 64.1294643 46.3797632 64.1294643 49.1937867 67 49.1937867 67 50.1090047"></polygon>
                <polygon id="Path" fill="#5B6670" points="69 50.1090047 69 42.1090047 69.93101 42.1090047 69.93101 49.159602 72 49.159602 72 50.1090047"></polygon>
                <polygon id="Path" fill="#5B6670" points="74 50.1090047 74 42.1090047 77.8696429 42.1090047 77.8696429 43.0125689 75.1303571 43.0125689 75.1303571 45.5321377 77.6875 45.5321377 77.6875 46.3797632 75.1303571 46.3797632 75.1303571 49.1937867 78 49.1937867 78 50.1090047"></polygon>
                <path d="M84.1632001,50.7992879 C83.7975521,51.0145946 83.3810206,51.1214082 82.9598948,51.1078586 C82.5210933,51.1148569 82.0888559,50.99773 81.7103709,50.7692648 C81.3315599,50.5341157 81.0122886,50.2100269 80.7787012,49.8235372 C80.5123699,49.3834048 80.3171278,48.9017998 80.2005633,48.3974401 C80.0623271,47.8119256 79.9950559,47.2110694 80.0002827,46.6085639 C79.995537,46.0038126 80.0647317,45.4008466 80.2062393,44.8138498 C80.3249481,44.3084319 80.5244277,43.8267944 80.79654,43.3885867 C81.0330949,43.0061697 81.3514848,42.6844055 81.7273988,42.4478629 C82.0999477,42.2201037 82.526545,42.1029081 82.9598948,42.1092691 C83.362232,42.1036049 83.7608569,42.1890199 84.1275226,42.3594616 C84.4825565,42.5303181 84.7845717,42.799086 85,43.1358923 L84.339966,43.875628 C84.1877852,43.6364429 83.9812921,43.4389453 83.7383133,43.3001853 C83.5142413,43.1754968 83.2633093,43.1106881 83.0085459,43.111707 C82.7067302,43.1043235 82.4114158,43.2025304 82.1709352,43.3902546 C81.9229322,43.5912916 81.7229522,43.8480384 81.5863104,44.1408321 C81.4214772,44.4927068 81.3044308,44.8662062 81.2384547,45.2508527 C81.1580424,45.6966753 81.118677,46.1493026 81.120881,46.602726 C81.1184863,47.0542239 81.1578549,47.5049324 81.2384547,47.9487616 C81.3053572,48.3342993 81.4246393,48.7082455 81.5927973,49.0596162 C81.7317199,49.3561168 81.9354128,49.6155674 82.1879631,49.8176994 C82.4313199,50.0039277 82.7279833,50.1016257 83.0312498,50.0954131 C83.3070306,50.1004012 83.5773565,50.0160864 83.8039924,49.8543943 C84.0227723,49.6986197 84.2059445,49.4957103 84.3407768,49.2597702 L84.9772961,49.9753207 C84.7714481,50.3082599 84.4940406,50.588157 84.1664435,50.7934501" id="Path" fill="#5B6670"></path>
                <polygon id="Path" fill="#5B6670" points="88.499618 42.9791611 88.499618 50.1090047 87.499618 50.1090047 87.499618 42.9791611 86 42.9791611 86 42.1090047 90 42.1090047 90 42.9791611"></polygon>
                <rect id="Rectangle" fill="#5B6670" x="92" y="42.1090047" width="1" height="8"></rect>
                <polygon id="Path" fill="#5B6670" points="98.1046666 50.1090047 96.8629472 50.1090047 95 42.1090047 96.0606507 42.1090047 97.5047843 48.9335167 97.5268659 48.9335167 98.9724717 42.1090047 100 42.1090047"></polygon>
                <polygon id="Path" fill="#5B6670" points="102 50.1090047 102 42.1090047 105.869643 42.1090047 105.869643 43.0125689 103.130357 43.0125689 103.130357 45.5321377 105.6875 45.5321377 105.6875 46.3797632 103.130357 46.3797632 103.130357 49.1937867 106 49.1937867 106 50.1090047"></polygon>
                <polygon id="Path" fill="#5B6670" points="117.05857 50.1090047 117.05857 43.4872703 117.026949 43.4872703 115.376213 50.1090047 114.529644 50.1090047 112.89903 43.4872703 112.867409 43.4872703 112.867409 50.1090047 112 50.1090047 112 42.1090047 113.381962 42.1090047 114.96299 48.4588154 115.00539 48.4588154 116.554078 42.1090047 118 42.1090047 118 50.1090047"></polygon>
                <path d="M125.869221,48.3527761 C125.791405,48.6789133 125.646387,48.9879838 125.442163,49.2629468 C125.24198,49.5258591 124.974192,49.7380971 124.66317,49.880346 C124.294067,50.0414607 123.889251,50.1194197 123.481614,50.1078887 C123.014545,50.1078887 122.625048,50.0320411 122.313124,49.880346 C122.007018,49.7359064 121.743739,49.5239093 121.546379,49.2629468 C121.342407,48.9883905 121.198932,48.6790608 121.12422,48.3527761 C121.039254,47.9864311 120.997635,47.6125596 121.000104,47.2378169 L121.000104,42.1090047 L122.068974,42.1090047 L122.068974,47.1392151 C122.068403,47.3962928 122.090249,47.6529912 122.134299,47.9067924 C122.171478,48.1354482 122.24755,48.357161 122.359668,48.5636323 C122.461177,48.7483599 122.612897,48.9052384 122.799791,49.0187177 C123.011404,49.1396188 123.257075,49.1990452 123.505295,49.1893747 C123.752286,49.1995488 123.996809,49.1400557 124.206715,49.0187177 C124.390447,48.9038423 124.539439,48.7471686 124.63949,48.5636323 C124.75224,48.3573395 124.828607,48.1355714 124.865675,47.9067924 C124.909725,47.6529912 124.931571,47.3962928 124.931,47.1392151 L124.931,42.1090047 L125.99987,42.1090047 L125.99987,47.2385754 C126.002712,47.6136627 125.958872,47.9877983 125.869221,48.3535346" id="Path" fill="#5B6670"></path>
                <polygon id="Path" fill="#5B6670" points="129.499618 42.9791611 129.499618 50.1090047 128.499618 50.1090047 128.499618 42.9791611 127 42.9791611 127 42.1090047 131 42.1090047 131 42.9791611"></polygon>
                <rect id="Rectangle" fill="#5B6670" x="134" y="42.1090047" width="1" height="8"></rect>
                <path d="M140.98785,48.6228446 C140.992509,48.9810649 140.937869,49.337116 140.82674,49.6726788 C140.730285,49.9645616 140.582175,50.2311916 140.391446,50.4562992 C140.207114,50.667756 139.985562,50.8332145 139.741093,50.9419936 C139.484462,51.0551436 139.211028,51.1117975 138.935541,51.1088989 C138.555019,51.1105216 138.178835,51.0176435 137.833635,50.8368433 C137.508803,50.6742538 137.223012,50.4264943 137,50.1141433 L137.569798,49.3246813 C137.733817,49.5665344 137.945648,49.761725 138.188373,49.8946629 C138.419678,50.0286538 138.675582,50.0995383 138.935541,50.1016254 C139.234326,50.1123391 139.523187,49.9798648 139.730746,49.7369374 C139.93817,49.493812 140.042128,49.14192 140.04262,48.6812614 C140.04643,48.4835108 140.013448,48.2870582 139.945806,48.1046036 C139.880335,47.9384199 139.789251,47.7866843 139.676796,47.6564629 C139.558506,47.5190062 139.427148,47.3967039 139.285106,47.2917749 C139.131016,47.1780058 138.971105,47.0746224 138.806209,46.9821655 C138.602556,46.8717285 138.406638,46.7439554 138.220152,46.5999524 C138.038988,46.4602846 137.874548,46.2947936 137.730909,46.1075818 C137.582603,45.9130018 137.467806,45.6888391 137.392429,45.4466369 C137.305113,45.1554665 137.26335,44.849355 137.26901,44.5420102 C137.262538,44.1736187 137.320814,43.807434 137.440467,43.4646365 C137.544018,43.1765559 137.699851,42.9161576 137.897931,42.7002103 C138.084892,42.5017593 138.306724,42.3499276 138.549024,42.2545731 C138.786409,42.1596829 139.036246,42.1105945 139.288062,42.1093655 C139.624672,42.1033035 139.958929,42.1736842 140.270983,42.3163281 C140.555528,42.4490067 140.805156,42.6619266 140.99598,42.9347122 L140.415835,43.7116563 C140.162003,43.3169755 139.751599,43.0897912 139.319841,43.1049556 C139.182353,43.1066614 139.046134,43.1348851 138.917065,43.1884083 C138.782272,43.2415302 138.659245,43.326934 138.556414,43.4387662 C138.444394,43.5649013 138.356594,43.7157493 138.29849,43.8818997 C138.22985,44.0870488 138.196976,44.3052465 138.201676,44.5244851 C138.19779,44.7178957 138.228976,44.9101602 138.293317,45.0894595 C138.356877,45.2447299 138.443344,45.3866731 138.549024,45.5092263 C138.657034,45.6380169 138.778082,45.7520172 138.909675,45.8488786 C139.052274,45.9539818 139.200349,46.0492904 139.353098,46.1342867 C139.5561,46.2496299 139.753462,46.3772186 139.944328,46.5164998 C140.137519,46.6576535 140.31408,46.8259007 140.469784,47.0172157 C140.631483,47.218751 140.760784,47.4506132 140.851867,47.7023619 C140.954326,47.9943341 141.004562,48.3063295 140.999675,48.620341" id="Path" fill="#5B6670"></path>
                <polygon id="Path" fill="#5B6670" points="149.059289 50.1090047 149.059289 43.4872703 149.027668 43.4872703 147.376213 50.1090047 146.530363 50.1090047 144.89903 43.4872703 144.867409 43.4872703 144.867409 50.1090047 144 50.1090047 144 42.1090047 145.382681 42.1090047 146.96299 48.4588154 147.006109 48.4588154 148.555516 42.1090047 150 42.1090047 150 50.1090047"></polygon>
                <path d="M77.3984169,61 L77.1436795,59.8275642 L75.8368913,59.8275642 L75.5756776,61 L75,61 L76.1333653,56 L76.8918206,56 L78,61 L77.3984169,61 Z M76.5125929,56.5933961 L76.4874071,56.5933961 L75.9117294,59.3258893 L77.0630847,59.3258893 L76.5125929,56.5933961 Z" id="Shape" fill="#5B6670"></path>
                <path d="M82.990303,59.6192996 C82.9928181,59.8180212 82.9654716,60.0155563 82.909697,60.2015512 C82.8615064,60.3633436 82.7876965,60.5111867 82.6927273,60.6361469 C82.6007521,60.753671 82.4900553,60.8454845 82.3678788,60.905581 C82.2398223,60.9692645 82.1031819,61.00131 81.9654545,61 C81.7755559,61.0003923 81.5879003,60.9484265 81.4157576,60.8477363 C81.2537347,60.757478 81.1112015,60.6199674 81,60.4466297 L81.2842424,60.0097507 C81.3662621,60.1436595 81.4721206,60.2515762 81.5933333,60.3248516 C81.7084614,60.3993433 81.835947,60.4387167 81.9654545,60.4397797 C82.1144846,60.4457103 82.2586033,60.3724854 82.3624242,60.2380846 C82.4660606,60.1033676 82.5181818,59.9085226 82.5181818,59.6520274 C82.5199125,59.5423951 82.5033986,59.4335165 82.469697,59.3323599 C82.4373223,59.2397383 82.3919545,59.1551788 82.3357576,59.0827147 C82.2764497,59.0063401 82.2105944,58.9384416 82.1393939,58.8802586 C82.0626898,58.8170382 81.9829412,58.7598452 81.9006061,58.7090081 C81.7992008,58.6475246 81.7017379,58.5762744 81.6090909,58.4958964 C81.5192838,58.418548 81.4378025,58.3269652 81.3666667,58.2234179 C81.2929735,58.1150936 81.2356681,57.9907648 81.1975758,57.8565613 C81.154306,57.6948045 81.1337976,57.5248202 81.1369697,57.3542266 C81.133617,57.14911 81.1628746,56.9452136 81.2230303,56.7544693 C81.2747642,56.5948434 81.3523668,56.4504734 81.4509091,56.3305292 C81.5436408,56.2193321 81.6541761,56.1342272 81.7751515,56.0808841 C81.8939988,56.0275716 82.019253,56.0002825 82.1454545,56.0002061 C82.3135138,55.9968011 82.4804198,56.0356172 82.6363636,56.1143731 C82.7788487,56.1884577 82.9039849,56.3068445 83,56.4583963 L82.710303,56.8884253 C82.5836091,56.6705394 82.3795919,56.5449953 82.1648485,56.5527743 C82.0962553,56.5528476 82.0281864,56.5677815 81.9636364,56.5969189 C81.8954163,56.6258378 81.8332683,56.6737071 81.7818182,56.7369637 C81.7256912,56.8067861 81.6820917,56.8908632 81.6539394,56.9835644 C81.6193417,57.0974238 81.602869,57.2187019 81.6054545,57.3405265 C81.6034336,57.4478504 81.6189017,57.5545605 81.6509091,57.6541052 C81.680228,57.740909 81.7212312,57.8207237 81.7721212,57.8900503 C81.8264461,57.9619443 81.8874954,58.0253232 81.9539394,58.0788064 C82.0243918,58.1372273 82.097664,58.1900995 82.1733333,58.2371179 C82.2749038,58.300675 82.3734532,58.3715777 82.4684848,58.4494685 C82.5654831,58.5280886 82.65408,58.621959 82.7321212,58.7287971 C82.8125292,58.8407975 82.8767278,58.9695882 82.9218182,59.1093537 C82.972709,59.27108 82.9974327,59.4439187 82.9945455,59.6177773" id="Path" fill="#5B6670"></path>
                <path d="M88.9897001,59.6192996 C88.9922144,59.8180212 88.9648762,60.0155563 88.9091184,60.2015512 C88.8611526,60.3632985 88.7875699,60.511144 88.6928204,60.6361469 C88.6008731,60.753671 88.4902098,60.8454845 88.3680703,60.905581 C88.2400526,60.9692645 88.1034536,61.00131 87.9657679,61 C87.7757311,61.0004047 87.5879329,60.9484409 87.4156316,60.8477363 C87.2536579,60.757478 87.1111678,60.6199674 87,60.4466297 L87.2841563,60.0097507 C87.3661511,60.1436595 87.4719775,60.2515762 87.5931536,60.3248516 C87.7084932,60.3992445 87.8361171,60.4386085 87.9657679,60.4397797 C88.1147528,60.4457103 88.2588279,60.3724854 88.3626174,60.2380846 C88.4662224,60.1033676 88.5183278,59.9085226 88.5183278,59.6520274 C88.5200579,59.5423951 88.503549,59.4335165 88.4698576,59.3323599 C88.4374928,59.2397383 88.3921387,59.1551788 88.3359588,59.0827147 C88.2765374,59.0065203 88.2107185,58.9386387 88.1396547,58.8802586 C88.0629738,58.8170382 87.9832493,58.7598452 87.9009391,58.7090081 C87.7993714,58.6475243 87.7017366,58.5762751 87.6089064,58.4958964 C87.5191265,58.418548 87.4376699,58.3269652 87.3665556,58.2234179 C87.2928847,58.1150936 87.2355967,57.9907648 87.1975159,57.8565613 C87.1542592,57.6948045 87.1337571,57.5248202 87.1369282,57.3542266 C87.1335765,57.14911 87.1628252,56.9452136 87.2229627,56.7544693 C87.2744595,56.5946952 87.3520678,56.4502709 87.4507725,56.3305292 C87.5436983,56.2193147 87.6544,56.134215 87.7755226,56.0808841 C87.8943339,56.0275716 88.0195501,56.0002825 88.1457134,56.0002061 C88.3137218,55.9968011 88.4805772,56.0356172 88.6364738,56.1143731 C88.7788231,56.1886612 88.9038838,56.3070125 89,56.4583963 L88.7103908,56.8884253 C88.5838747,56.6703306 88.3798257,56.544729 88.1651015,56.5527743 C88.0965291,56.5528476 88.0284808,56.5677815 87.9639503,56.5969189 C87.8957509,56.6258378 87.8336217,56.6737071 87.7821872,56.7369637 C87.7258976,56.8069041 87.6819311,56.8909183 87.6531354,56.9835644 C87.6190542,57.0975774 87.6028024,57.2187795 87.6052711,57.3405265 C87.6032508,57.4478504 87.6187142,57.5545605 87.6507119,57.6541052 C87.6800646,57.7408806 87.7210509,57.8206866 87.7718873,57.8900503 C87.8263033,57.9617994 87.8873196,58.0251632 87.9536504,58.0788064 C88.0243701,58.1370653 88.0978137,58.1899312 88.1735838,58.2371179 C88.275052,58.3008429 88.3735639,58.3717401 88.4686459,58.4494685 C88.565542,58.5279033 88.6539296,58.6217962 88.7315965,58.7287971 C88.8119801,58.8407975 88.8761593,58.9695882 88.921236,59.1093537 C88.9721114,59.27108 88.9968276,59.4439187 88.9939412,59.6177773" id="Path" fill="#5B6670"></path>
                <path d="M94.9977387,58.4927811 C95.0005973,58.8364178 94.9663656,59.1792291 94.8957485,59.5141566 C94.8382863,59.7942918 94.7379188,60.0618787 94.5988593,60.3056845 C94.480194,60.5133717 94.3193526,60.6886085 94.1287265,60.8178944 C93.9387815,60.9410983 93.7210433,61.004095 93.50002,60.9997936 C93.2791131,61.0030606 93.0616286,60.9401374 92.8713135,60.8178944 C92.6795785,60.6893624 92.51791,60.5140061 92.3990851,60.3056845 C92.2600256,60.0618787 92.1596581,59.7942918 92.1021959,59.5141566 C92.0312374,59.1792919 91.9970014,58.8364364 92.0002057,58.4927811 C91.9973085,58.1496025 92.0303546,57.8071839 92.0987031,57.4721668 C92.1542678,57.1935525 92.2522569,56.9270404 92.3886067,56.6836832 C92.5067672,56.4762836 92.6692747,56.3031487 92.8622322,56.1790842 C93.0568235,56.0576976 93.2779211,55.9958982 93.5021157,56.0002293 C93.722793,55.9957264 93.9403361,56.0576132 94.1308222,56.1790842 C94.3213744,56.3052235 94.4823383,56.477988 94.600955,56.6836832 C94.7402653,56.9262537 94.8406621,57.1928894 94.8978442,57.4721668 C94.9684643,57.8068359 95.0026964,58.1493957 94.9998343,58.4927811 M94.412343,58.4927811 C94.4134538,58.237696 94.3938172,57.9830053 94.3536638,57.7316966 C94.3213739,57.5177361 94.2631155,57.309403 94.1804202,57.1121738 C94.1149663,56.952706 94.0178627,56.8110404 93.8961051,56.6973828 C93.785825,56.5972433 93.6463646,56.5432674 93.5028143,56.5451658 C93.3566626,56.5428846 93.2144459,56.5967786 93.1011407,56.6973828 C92.9771964,56.8096854 92.8787059,56.9516306 92.8133328,57.1121738 C92.7309959,57.3093058 92.6736538,57.5177239 92.6428835,57.7316966 C92.5693061,58.2359201 92.5693061,58.7496422 92.6428835,59.2538657 C92.6737607,59.4680566 92.7310973,59.6767108 92.8133328,59.8741496 C92.8789867,60.0345123 92.9774323,60.1763929 93.1011407,60.2889406 C93.2144459,60.3895448 93.3566626,60.4434388 93.5028143,60.4411575 C93.6463646,60.4430559 93.785825,60.38908 93.8961051,60.2889406 C94.0176933,60.1751105 94.1147664,60.0334894 94.1804202,59.8741496 C94.2630124,59.6766126 94.3212653,59.4680433 94.3536638,59.2538657 C94.3938464,59.0025611 94.4134831,58.7478675 94.412343,58.4927811" id="Shape" fill="#5B6670"></path>
                <path d="M100.49577,60.8275134 C100.277207,60.946717 100.028358,61.0062219 99.7765835,60.9994853 C99.5130331,61.0032368 99.2534671,60.9379562 99.0262321,60.8107727 C98.7990843,60.6796631 98.6074767,60.499551 98.4668646,60.2849647 C98.3070429,60.0407863 98.1899163,59.773517 98.1200568,59.4935893 C98.0371109,59.1685786 97.9968483,58.8350209 98.0001924,58.5005655 C97.9969262,58.1643815 98.0385463,57.8291655 98.1240523,57.502976 C98.1951005,57.2221878 98.3144456,56.9545281 98.4772529,56.7108397 C98.6201164,56.4989993 98.8113164,56.3205709 99.0366203,56.1888363 C99.2599543,56.0620817 99.515815,55.9967591 99.7757844,56.0001237 C100.017239,55.997449 100.256312,56.0457872 100.475793,56.1416582 C100.689084,56.2365202 100.870551,56.3858776 101,56.5731099 L100.600452,56.9840163 C100.508832,56.8511493 100.384937,56.7412626 100.23926,56.6636615 C100.104651,56.5948146 99.9541512,56.5589862 99.8013555,56.559413 C99.6205526,56.5545111 99.4433516,56.6081642 99.2987239,56.7116006 C99.1498565,56.8235481 99.0298603,56.9664457 98.9479206,57.1293555 C98.8500336,57.3250375 98.7801554,57.5323394 98.7401556,57.7457151 C98.6919882,57.9936602 98.6684441,58.2453733 98.6698351,58.4975217 C98.6684197,58.7479066 98.6919655,58.9978542 98.7401556,59.2440017 C98.7806742,59.4579861 98.8519297,59.6656416 98.9519161,59.8611223 C99.0356429,60.0255413 99.157838,60.1694945 99.3091122,60.2819209 C99.455212,60.3848877 99.6332357,60.4384493 99.8149401,60.4341085 C99.9805963,60.4368331 100.142884,60.389406 100.278416,60.2986616 C100.409151,60.2122818 100.518286,60.0995249 100.598055,59.9684146 L100.980023,60.366385 C100.856414,60.5523819 100.689312,60.70864 100.491775,60.8229477" id="Path" fill="#5B6670"></path>
                <rect id="Rectangle" fill="#5B6670" x="104" y="56" width="1" height="5"></rect>
                <path d="M110.397697,61 L110.14296,59.8275642 L108.836891,59.8275642 L108.575678,61 L108,61 L109.134085,56 L109.891821,56 L111,61 L110.397697,61 Z M109.512593,56.5933961 L109.487407,56.5933961 L108.911729,59.3258893 L110.063085,59.3258893 L109.512593,56.5933961 Z" id="Shape" fill="#5B6670"></path>
                <polygon id="Path" fill="#5B6670" points="114.250078 56.5439464 114.250078 61 113.749922 61 113.749922 56.5439464 113 56.5439464 113 56 115 56 115 56.5439464"></polygon>
                <rect id="Rectangle" fill="#5B6670" x="118" y="56" width="1" height="5"></rect>
                <path d="M124.998438,58.4927811 C125.001296,58.8364178 124.967072,59.1792291 124.89647,59.5141566 C124.838717,59.7941879 124.738392,60.0617212 124.599648,60.3056845 C124.481009,60.5133717 124.320203,60.6886085 124.12962,60.8178944 C123.939717,60.9410983 123.722028,61.004095 123.501054,60.9997936 C123.280192,61.0030998 123.062747,60.9401738 122.872488,60.8178944 C122.68043,60.6896105 122.518523,60.5142149 122.399667,60.3056845 C122.260639,60.0618787 122.160294,59.7942918 122.102845,59.5141566 C122.031654,59.1793249 121.997191,58.8364674 122.000179,58.4927811 C121.997499,58.1495727 122.030773,57.8071523 122.099353,57.4721668 C122.154817,57.1934032 122.253041,56.9268345 122.38989,56.6836832 C122.508024,56.4762836 122.670495,56.3031487 122.863409,56.1790842 C123.057765,56.0578659 123.278547,55.9960737 123.502451,56.0002293 C123.723079,55.9957264 123.940573,56.0576132 124.131017,56.1790842 C124.321526,56.3052235 124.482454,56.477988 124.601044,56.6836832 C124.740034,56.9264153 124.840388,57.1929956 124.897867,57.4721668 C124.968471,57.8068359 125.002696,58.1493957 124.999834,58.4927811 M124.412475,58.4927811 C124.413585,58.237696 124.393953,57.9830053 124.353808,57.7316966 C124.321526,57.5177361 124.26328,57.309403 124.180604,57.1121738 C124.115164,56.952706 124.018083,56.8110404 123.896352,56.6973828 C123.786097,56.5972433 123.646668,56.5432674 123.503149,56.5451658 C123.35703,56.5428846 123.214846,56.5967786 123.101566,56.6973828 C122.978139,56.8100134 122.879959,56.9518874 122.814521,57.1121738 C122.73213,57.3092163 122.675023,57.5176807 122.644808,57.7316966 C122.570311,58.235839 122.570311,58.7497233 122.644808,59.2538657 C122.675134,59.4680992 122.732235,59.6767989 122.814521,59.8741496 C122.88015,60.0343132 122.9783,60.1761435 123.101566,60.2889406 C123.214846,60.3895448 123.35703,60.4434388 123.503149,60.4411575 C123.646668,60.4430559 123.786097,60.38908 123.896352,60.2889406 C124.017913,60.1751105 124.114965,60.0334894 124.180604,59.8741496 C124.263177,59.6766126 124.321417,59.4680433 124.353808,59.2538657 C124.393982,59.0025611 124.413614,58.7478675 124.412475,58.4927811" id="Shape" fill="#5B6670"></path>
                <polygon id="Path" fill="#5B6670" points="131.245125 61 129.618364 57.1231653 129.597237 57.1231653 129.597237 61 129 61 129 56 129.776815 56 131.381636 59.884014 131.402763 59.884014 131.402763 56 132 56 132 61"></polygon>
                <g id="Group-5">
                    <path d="M21.9497273,17.8744665 C24.424243,12.3831938 21.7969323,7.50756929 21.4432118,6.89579303 C18.9534167,3.21351946 15.3046712,0.829140842 11.0080748,1.00957612 C6.05445978,1.21788981 1,5.52742765 1,11.1077564 C1,14.4601355 3.20636032,17.6436952 5.98111816,19.8584802 L10.3938388,23.4207217 C11.7789258,24.5397302 12.8889817,25.6773242 13.7071991,27 C16.3047148,25.3009657 19.9649198,22.2808044 21.9489634,17.8752409" id="Path" fill="#F37D20"></path>
                    <path d="M15.9981501,33.1648413 C15.9346718,30.5956475 15.3384574,28.6521163 14.2496833,27 C13.3481301,27.553 12.5671054,27.9644994 12.0094601,28.2352629 C9.15855926,29.62044 7.01074132,29.9378605 4.56883383,31.3819325 C1.96541814,32.6722659 0,35.0877211 0,37.6186715 C0,41.2403246 2.63153901,44.1315281 6.60335498,43.9953814 C7.60438109,43.9576221 8.5973257,43.8084781 9.56192799,43.5509927 C9.43577482,43.5823524 9.30962166,43.6152417 9.18507554,43.6420121 C13.312775,41.8721061 16.1122504,37.80224 15.9965431,33.1633116" id="Path" fill="#EB1E50"></path>
                    <path d="M24.9400382,17.0608118 C24.6146069,13.3244484 23.3982406,9.79122399 21.5188175,7 C21.8709235,7.61329394 24.4911412,12.4948346 22.0256368,17.9927705 C20.0440877,22.4029044 16.3972752,25.4282811 13.8029702,27.1286017 C14.8349,28.8033361 15.4034521,30.7726997 15.4621365,33.377842 C15.5695974,38.0779531 12.9150837,42.2035372 9,44 C9.11813081,43.9736384 9.23778589,43.9402988 9.35820311,43.9092852 C10.8824716,43.4812975 12.3579636,42.7679847 13.7602906,41.8236206 C13.8060187,41.792607 13.8517468,41.7631441 13.8974748,41.7305798 C14.0102707,41.6530458 14.1223044,41.5755118 14.2343382,41.4917751 C14.3463719,41.4080384 14.4797454,41.3142223 14.602449,41.2211815 L14.6626576,41.1738857 C18.8780223,37.9352905 22.974494,32.0729448 24.6306117,23.3410658 C24.9755777,21.2690723 25.0794355,19.1629526 24.9400382,17.0662392" id="Path" fill="#B61E42"></path>
                    <path d="M24.0089197,45.1792325 C24.0089197,45.1792325 24.0037166,45.1610463 24,45.1523485 C24.1392926,45.7688172 24.3445472,46.366272 24.6117458,46.9330167 C26.1645246,50.0476046 29.6291019,52.0022279 33.0208346,50.4635155 C36.0305049,49.0979676 36.8273354,45.5200265 35.1021082,41.8005491 C34.4048816,40.2982092 32.9911021,36.8056642 32.099871,33 C30.6901335,33.7061923 29.3652312,34.5899401 28.1536275,35.6322577 C24.6005961,38.6891241 24.0973739,42.7786515 24.0096631,45.1792325" id="Path" fill="#F37D20"></path>
                    <path d="M41.1549121,15.0338382 C39.8162955,15.121259 38.1576621,15.5441868 36.3610765,16.4766757 C35.4234834,17.1350884 31.8696127,19.9987112 31.1253129,25.1636284 C30.7836409,27.5460428 31.1790501,30.3482348 31.8471553,33 C35.9015035,31.1200584 39.7280703,30.853858 42.2023857,30.2749904 C46.8919552,29.1802611 50.7409793,27.6145619 50.9896139,22.5843201 C51.230228,17.7541224 47.2705214,14.6376879 41.151704,15.0338382" id="Path" fill="#EB1E50"></path>
                    <path d="M31.6481766,25.4885102 C32.4066318,20.4411215 36.0422967,17.6426608 37,17 C36.9688418,17.0146234 36.9368637,17.0315558 36.9057056,17.0477185 C32.9920771,19.2396921 30.7708286,21.8442001 29.0595898,24.3424959 C27.716562,26.2881697 26.546632,28.3344197 25.5616768,30.4604728 C25.4345843,30.7490929 25.3099517,31.040022 25.186139,31.3401869 C23.0616447,36.5122595 22.8689561,40.3766905 23.0542651,42.6540957 C23.1209369,43.4364988 23.2564172,44.2123876 23.4593211,44.9738318 C23.4593211,44.9815283 23.4683406,45 23.4683406,45 C23.5659148,42.6625618 24.120202,38.6819131 28.0395702,35.7079714 C29.3758783,34.6929047 30.8374175,33.8324081 32.3926926,33.1450247 C31.7063932,30.5543705 31.3029771,27.8151732 31.6547363,25.4877405" id="Path" fill="#B61E42"></path>
                    <path d="M28.6866031,2.14518346 C28.6554468,1.86852445 28.5960376,1.59615115 28.509392,1.33272508 C28.2503913,0.57411384 27.6021322,0 26.7925656,0 C26.3167178,-0.00146976326 25.859952,0.195531773 25.5234753,0.547362566 C25.1869986,0.89919336 24.9985944,1.37680232 25,1.874364 C25,2.37086635 25.2794561,2.86420122 25.4437928,3.2340044 C26.1889878,4.91593579 28.1958648,10.277686 27.502167,18 C27.502167,18 29.8233285,9.94430883 28.6866031,2.14518346" id="Path" fill="#EB1E50"></path>
                    <path d="M37.5534446,6.77647359 C37.5604363,6.76612932 38.0809349,6.41362864 38.3745894,6.22981902 C38.9502453,5.86697407 39.9555067,5.94177106 40.5086336,6.39771438 C41.1845049,6.95471321 41.121579,8.08462512 40.5731133,8.77371225 C40.3105334,9.10313727 39.8622831,9.27898976 39.555422,9.433358 C38.1640593,10.1383594 33.8594582,11.8634643 30,18 C30,18 32.2567887,11.5682549 37.551114,6.78045215" id="Path" fill="#F37D20"></path>
                </g>
            </g>
        </g>
    </g>
</svg>