<svg xmlns="http://www.w3.org/2000/svg" id="Layer_1" data-name="Layer 1" viewBox="0 0 338.71 172.9"><defs><style>      .cls-1 {        fill: #76b043;      }      .cls-1, .cls-2 {        stroke-width: 0px;      }      .cls-2 {        fill: #00b9b5;      }    </style></defs><g><path class="cls-2" d="M83.27,18.32c0,5.83-4.61,10.55-10.29,10.55s-10.29-4.72-10.29-10.55,4.61-10.55,10.29-10.55,10.29,4.72,10.29,10.55"></path><path class="cls-1" d="M64.26,71.85c0-.32,0-.64,0-.96s0-.64,0-.96c0,.32.01.64.01.96s0,.64-.01.96"></path><g><path class="cls-1" d="M83.99,63.78c4.42-12.6,13.58-33.73,41.33-45.46h-19.74c-9.53,3.85-21.47,13.54-30.84,25.06,4.58,6.96,7.57,14.7,8.58,22.89.18-.85.38-1.68.66-2.49Z"></path><path class="cls-1" d="M83.15,80.06c-1.24,8.26-4.48,16.02-9.34,22.97,4.1,5.6,9.37,10.58,15.56,14.73h18.54c-14.47-9.67-21.7-22.94-24.77-37.7Z"></path></g><path class="cls-2" d="M61.41,73.18c-1.7,24.59-18.24,44.55-43.91,51.47-.2.06.02.16.02.16h18.37c25.56-7.06,44.05-27.32,44.05-51.64,0-18.92-9.74-35.55-27.08-45.19h-18.52c17.34,9.64,27.08,26.28,27.08,45.19"></path><path class="cls-2" d="M54.02,82.89c-9.02,18.29-24.89,30.73-43.58,38.59-.13.05-.14.12-.01.1,20.83-3.5,38.82-17.92,43.85-38.59,0,0,.19-.5.05-.49-.12,0-.31.39-.31.39Z"></path><path class="cls-1" d="M93.02,60.5c.14.01.32-.56.32-.56,8.92-17.72,24.56-31.16,42.67-39.01.44-.19.87-.24.87-.4s-.4-.02-.83.06c-20.29,3.78-37.92,19.23-43.05,39.37,0,0-.25.52.01.54Z"></path></g><g><path class="cls-2" d="M157.96,23.3h-9.82v-5.04h25.13v5.04h-9.82v25.93h-5.49v-25.93Z"></path><path class="cls-2" d="M170.97,37.68v-.09c0-6.68,5.31-12.21,12.48-12.21s12.43,5.44,12.43,12.12v.09c0,6.64-5.31,12.17-12.52,12.17s-12.39-5.44-12.39-12.08ZM190.53,37.68v-.09c0-4.12-2.96-7.52-7.17-7.52s-7.04,3.36-7.04,7.43v.09c0,4.07,2.96,7.48,7.12,7.48s7.08-3.36,7.08-7.39Z"></path><path class="cls-2" d="M200.44,40.73v-14.87h5.35v13.28c0,3.63,1.81,5.66,5,5.66s5.27-2.12,5.27-5.75v-13.19h5.4v23.36h-5.4v-3.63c-1.5,2.21-3.67,4.12-7.3,4.12-5.27,0-8.32-3.54-8.32-8.98Z"></path><path class="cls-2" d="M227.3,25.86h5.35v5.27c1.46-3.5,4.16-5.88,8.27-5.71v5.66h-.31c-4.69,0-7.96,3.05-7.96,9.25v8.89h-5.35v-23.36Z"></path><path class="cls-2" d="M243.05,37.63v-.09c0-6.68,4.73-12.17,11.42-12.17,7.43,0,11.2,5.84,11.2,12.57,0,.49-.04.97-.09,1.5h-17.17c.58,3.81,3.28,5.93,6.73,5.93,2.61,0,4.47-.97,6.33-2.79l3.14,2.79c-2.21,2.66-5.27,4.38-9.56,4.38-6.77,0-11.99-4.91-11.99-12.12ZM260.35,35.91c-.35-3.45-2.39-6.15-5.93-6.15-3.27,0-5.58,2.52-6.06,6.15h11.99Z"></path><path class="cls-2" d="M271.55,42.77v-12.3h-2.96v-4.6h2.96v-6.42h5.35v6.42h6.28v4.6h-6.28v11.46c0,2.08,1.06,2.92,2.88,2.92,1.19,0,2.26-.27,3.32-.8v4.38c-1.33.75-2.79,1.19-4.82,1.19-3.94,0-6.73-1.73-6.73-6.86Z"></path><path class="cls-2" d="M289.56,42.77v-12.3h-2.96v-4.6h2.96v-6.42h5.35v6.42h6.28v4.6h-6.28v11.46c0,2.08,1.06,2.92,2.88,2.92,1.19,0,2.26-.27,3.32-.8v4.38c-1.33.75-2.79,1.19-4.82,1.19-3.94,0-6.73-1.73-6.73-6.86Z"></path><path class="cls-2" d="M303.81,37.63v-.09c0-6.68,4.73-12.17,11.42-12.17,7.43,0,11.2,5.84,11.2,12.57,0,.49-.04.97-.09,1.5h-17.17c.58,3.81,3.27,5.93,6.73,5.93,2.61,0,4.47-.97,6.33-2.79l3.14,2.79c-2.21,2.66-5.27,4.38-9.56,4.38-6.77,0-11.99-4.91-11.99-12.12ZM321.11,35.91c-.35-3.45-2.39-6.15-5.93-6.15-3.27,0-5.58,2.52-6.06,6.15h11.99Z"></path></g><g><path class="cls-2" d="M123.75,58.97h4.73l12.77,29.24h-5.39l-2.94-7.01h-13.73l-2.99,7.01h-5.23l12.77-29.24ZM131.05,76.68l-5.02-11.61-4.98,11.61h10Z"></path><path class="cls-2" d="M141.84,85.35l2.24-3.4c2.41,1.78,4.94,2.7,7.17,2.7s3.4-.91,3.4-2.36v-.08c0-1.7-2.32-2.28-4.89-3.07-3.23-.91-6.84-2.24-6.84-6.43v-.08c0-4.15,3.44-6.68,7.8-6.68,2.74,0,5.72.95,8.05,2.49l-1.99,3.57c-2.11-1.29-4.35-2.07-6.18-2.07-1.95,0-3.07.91-3.07,2.16v.08c0,1.62,2.36,2.28,4.94,3.11,3.19,1,6.8,2.45,6.8,6.39v.08c0,4.6-3.57,6.88-8.13,6.88-3.11,0-6.55-1.12-9.29-3.28Z"></path><path class="cls-2" d="M160.59,85.35l2.24-3.4c2.41,1.78,4.94,2.7,7.17,2.7s3.4-.91,3.4-2.36v-.08c0-1.7-2.32-2.28-4.89-3.07-3.23-.91-6.84-2.24-6.84-6.43v-.08c0-4.15,3.44-6.68,7.8-6.68,2.74,0,5.72.95,8.05,2.49l-1.99,3.57c-2.12-1.29-4.35-2.07-6.18-2.07-1.95,0-3.07.91-3.07,2.16v.08c0,1.62,2.36,2.28,4.94,3.11,3.19,1,6.8,2.45,6.8,6.39v.08c0,4.6-3.57,6.88-8.13,6.88-3.11,0-6.55-1.12-9.29-3.28Z"></path><path class="cls-2" d="M179.5,77.39v-.08c0-6.26,4.98-11.45,11.7-11.45s11.65,5.1,11.65,11.36v.08c0,6.22-4.98,11.41-11.74,11.41s-11.61-5.1-11.61-11.32ZM197.83,77.39v-.08c0-3.86-2.78-7.05-6.72-7.05s-6.59,3.15-6.59,6.97v.08c0,3.82,2.78,7.01,6.68,7.01s6.64-3.15,6.64-6.93Z"></path><path class="cls-2" d="M204.47,77.39v-.08c0-6.22,4.81-11.45,11.41-11.45,4.11,0,6.68,1.54,8.75,3.77l-3.15,3.36c-1.53-1.62-3.15-2.74-5.64-2.74-3.65,0-6.34,3.15-6.34,6.97v.08c0,3.9,2.7,7.01,6.55,7.01,2.36,0,4.11-1.08,5.68-2.7l3.03,2.99c-2.16,2.41-4.69,4.11-8.96,4.11-6.51,0-11.32-5.1-11.32-11.32Z"></path><path class="cls-2" d="M226.96,58.19h5.39v4.77h-5.39v-4.77ZM227.16,66.32h5.02v21.9h-5.02v-21.9Z"></path><path class="cls-2" d="M234.84,81.91v-.08c0-4.73,3.69-7.05,9.04-7.05,2.45,0,4.19.37,5.89.91v-.54c0-3.11-1.91-4.77-5.43-4.77-2.45,0-4.27.54-6.26,1.37l-1.33-3.94c2.41-1.08,4.77-1.78,8.25-1.78,3.28,0,5.72.87,7.26,2.45,1.62,1.58,2.36,3.9,2.36,6.76v12.98h-4.89v-2.74c-1.49,1.78-3.77,3.19-7.13,3.19-4.11,0-7.76-2.36-7.76-6.76ZM249.85,80.33v-1.49c-1.29-.5-2.99-.87-4.98-.87-3.24,0-5.14,1.37-5.14,3.65v.08c0,2.12,1.87,3.32,4.27,3.32,3.32,0,5.85-1.91,5.85-4.69Z"></path><path class="cls-2" d="M259.43,82.16v-11.53h-2.78v-4.31h2.78v-6.01h5.02v6.01h5.89v4.31h-5.89v10.74c0,1.95,1,2.74,2.7,2.74,1.12,0,2.11-.25,3.11-.75v4.11c-1.24.7-2.61,1.12-4.52,1.12-3.69,0-6.3-1.62-6.3-6.43Z"></path><path class="cls-2" d="M273.25,58.19h5.39v4.77h-5.39v-4.77ZM273.45,66.32h5.02v21.9h-5.02v-21.9Z"></path><path class="cls-2" d="M281.13,77.39v-.08c0-6.26,4.98-11.45,11.7-11.45s11.65,5.1,11.65,11.36v.08c0,6.22-4.98,11.41-11.74,11.41s-11.61-5.1-11.61-11.32ZM299.46,77.39v-.08c0-3.86-2.78-7.05-6.72-7.05s-6.59,3.15-6.59,6.97v.08c0,3.82,2.78,7.01,6.68,7.01s6.64-3.15,6.64-6.93Z"></path><path class="cls-2" d="M307.1,66.32h5.02v3.36c1.41-2.03,3.44-3.82,6.84-3.82,4.93,0,7.8,3.32,7.8,8.38v13.98h-5.02v-12.44c0-3.4-1.7-5.35-4.69-5.35s-4.94,2.03-4.94,5.43v12.36h-5.02v-21.9Z"></path></g><g><path class="cls-2" d="M187.3,110.49v-.06c0-4.19,3.27-7.75,7.75-7.75s7.72,3.5,7.72,7.69v.06c0,4.19-3.3,7.75-7.77,7.75s-7.69-3.5-7.69-7.69ZM200.5,110.49v-.06c0-3.18-2.38-5.79-5.51-5.79s-5.42,2.61-5.42,5.74v.06c0,3.18,2.35,5.77,5.48,5.77s5.45-2.58,5.45-5.71Z"></path><path class="cls-2" d="M205.86,104.95h-2.04v-1.92h2.04v-1.29c0-1.69.46-2.98,1.29-3.82.75-.75,1.84-1.15,3.19-1.15,1.03,0,1.72.11,2.44.37v1.92c-.8-.23-1.41-.37-2.15-.37-1.72,0-2.58,1.03-2.58,3.16v1.21h4.7v1.89h-4.68v12.88h-2.21v-12.88Z"></path><path class="cls-2" d="M228.43,97.61h2.12l9.15,20.22h-2.44l-2.35-5.31h-10.93l-2.38,5.31h-2.32l9.15-20.22ZM234.03,110.46l-4.56-10.21-4.59,10.21h9.15Z"></path><path class="cls-2" d="M241.57,103h2.21v2.5c.98-1.46,2.29-2.81,4.79-2.81s3.96,1.29,4.76,2.95c1.06-1.64,2.64-2.95,5.22-2.95,3.41,0,5.51,2.29,5.51,5.97v9.18h-2.21v-8.66c0-2.87-1.43-4.48-3.84-4.48-2.24,0-4.07,1.66-4.07,4.59v8.55h-2.21v-8.72c0-2.78-1.46-4.42-3.82-4.42s-4.13,1.95-4.13,4.68v8.46h-2.21v-14.83Z"></path><path class="cls-2" d="M266.23,110.46v-.06c0-4.27,3.01-7.72,7.11-7.72,4.39,0,6.91,3.5,6.91,7.83,0,.29,0,.46-.03.72h-11.76c.32,3.21,2.58,5.02,5.22,5.02,2.04,0,3.47-.83,4.68-2.09l1.38,1.23c-1.49,1.66-3.3,2.78-6.11,2.78-4.07,0-7.4-3.13-7.4-7.72ZM278.02,109.6c-.23-2.7-1.78-5.05-4.73-5.05-2.58,0-4.53,2.15-4.82,5.05h9.55Z"></path><path class="cls-2" d="M282.87,103h2.21v3.87c1.09-2.47,3.24-4.25,6.05-4.13v2.38h-.17c-3.24,0-5.88,2.32-5.88,6.8v5.91h-2.21v-14.83Z"></path><path class="cls-2" d="M293.25,97.32h2.52v2.44h-2.52v-2.44ZM293.39,103h2.21v14.83h-2.21v-14.83Z"></path><path class="cls-2" d="M298.27,110.49v-.06c0-4.19,3.27-7.75,7.6-7.75,2.81,0,4.56,1.18,5.94,2.64l-1.46,1.55c-1.18-1.23-2.5-2.24-4.5-2.24-3.01,0-5.31,2.55-5.31,5.74v.06c0,3.21,2.35,5.77,5.45,5.77,1.89,0,3.36-.95,4.53-2.21l1.41,1.32c-1.49,1.66-3.27,2.87-6.05,2.87-4.33,0-7.6-3.53-7.6-7.69Z"></path><path class="cls-2" d="M313.3,113.53v-.06c0-3.13,2.58-4.79,6.34-4.79,1.89,0,3.24.26,4.56.63v-.52c0-2.67-1.63-4.04-4.42-4.04-1.75,0-3.13.46-4.5,1.09l-.66-1.81c1.63-.75,3.24-1.23,5.39-1.23s3.7.54,4.79,1.63c1,1,1.52,2.44,1.52,4.33v9.06h-2.12v-2.24c-1.03,1.35-2.75,2.55-5.36,2.55-2.75,0-5.54-1.58-5.54-4.62ZM324.23,112.38v-1.43c-1.09-.32-2.55-.63-4.36-.63-2.78,0-4.33,1.21-4.33,3.07v.06c0,1.86,1.72,2.95,3.73,2.95,2.72,0,4.96-1.66,4.96-4.02Z"></path></g><rect class="cls-2" x="15.59" y="132.88" width="310.91" height="1"></rect><g><path class="cls-1" d="M20.95,141.99h2.27l6.03,15.2h-2.27l-1.69-4.58h-6.52l-1.73,4.58h-2.12l6.03-15.2ZM19.41,150.91h5.23l-2.57-7.09h-.04l-2.61,7.09Z"></path><path class="cls-1" d="M41.36,157.19h-1.94l-2.27-8.75h-.04l-2.25,8.75h-1.99l-3.59-11h2.03l2.53,9h.04l2.25-9h2.01l2.33,9h.04l2.51-9h1.9l-3.56,11Z"></path><path class="cls-1" d="M56.66,157.14c-.32.19-.73.3-1.32.3-.95,0-1.56-.51-1.56-1.7-1.02,1.17-2.38,1.7-3.93,1.7-2.03,0-3.69-.89-3.69-3.09,0-2.49,1.88-3.02,3.78-3.38,2.03-.38,3.76-.25,3.76-1.62,0-1.58-1.32-1.83-2.48-1.83-1.56,0-2.7.47-2.79,2.09h-1.84c.11-2.72,2.25-3.68,4.73-3.68,2.01,0,4.19.45,4.19,3.02v5.66c0,.85,0,1.23.58,1.23.15,0,.32-.02.56-.11v1.4ZM53.68,151.5c-.71.51-2.1.53-3.33.75-1.21.21-2.25.64-2.25,1.98,0,1.19,1.04,1.62,2.16,1.62,2.42,0,3.41-1.49,3.41-2.49v-1.85Z"></path><path class="cls-1" d="M58.73,146.18h1.73v2.32h.04c.89-1.77,2.12-2.64,4.11-2.58v1.92c-2.96,0-4.04,1.66-4.04,4.45v4.9h-1.84v-11Z"></path><path class="cls-1" d="M75.58,153.7c-.5,2.43-2.27,3.75-4.77,3.75-3.57,0-5.25-2.43-5.36-5.79,0-3.3,2.2-5.73,5.25-5.73,3.95,0,5.16,3.64,5.06,6.3h-8.36c-.06,1.92,1.04,3.62,3.48,3.62,1.51,0,2.57-.72,2.9-2.15h1.81ZM73.81,150.63c-.09-1.72-1.4-3.11-3.22-3.11-1.92,0-3.07,1.43-3.2,3.11h6.42Z"></path><path class="cls-1" d="M78.09,146.18h1.73v1.75h.04c.78-1.36,2.03-2,3.63-2,2.94,0,3.85,1.66,3.85,4.02v7.24h-1.84v-7.45c0-1.34-.86-2.21-2.27-2.21-2.23,0-3.31,1.47-3.31,3.45v6.22h-1.84v-11Z"></path><path class="cls-1" d="M99.95,153.7c-.5,2.43-2.27,3.75-4.77,3.75-3.56,0-5.25-2.43-5.36-5.79,0-3.3,2.2-5.73,5.25-5.73,3.95,0,5.16,3.64,5.06,6.3h-8.36c-.06,1.92,1.04,3.62,3.48,3.62,1.51,0,2.57-.72,2.89-2.15h1.81ZM98.18,150.63c-.09-1.72-1.4-3.11-3.22-3.11-1.92,0-3.07,1.43-3.2,3.11h6.42Z"></path><path class="cls-1" d="M103.79,153.72c.06,1.62,1.49,2.13,3,2.13,1.14,0,2.7-.26,2.7-1.64s-1.81-1.64-3.65-2.04c-1.81-.4-3.65-1-3.65-3.11,0-2.21,2.22-3.13,4.17-3.13,2.46,0,4.43.77,4.58,3.45h-1.84c-.13-1.41-1.38-1.85-2.59-1.85-1.1,0-2.38.3-2.38,1.41,0,1.3,1.94,1.51,3.65,1.92,1.84.4,3.65,1,3.65,3.13,0,2.62-2.48,3.47-4.75,3.47-2.51,0-4.62-1-4.73-3.73h1.84Z"></path><path class="cls-1" d="M115.03,153.72c.06,1.62,1.49,2.13,3,2.13,1.14,0,2.7-.26,2.7-1.64s-1.81-1.64-3.65-2.04c-1.81-.4-3.65-1-3.65-3.11,0-2.21,2.22-3.13,4.17-3.13,2.46,0,4.43.77,4.58,3.45h-1.84c-.13-1.41-1.38-1.85-2.59-1.85-1.1,0-2.38.3-2.38,1.41,0,1.3,1.94,1.51,3.65,1.92,1.84.4,3.65,1,3.65,3.13,0,2.62-2.48,3.47-4.75,3.47-2.51,0-4.62-1-4.73-3.73h1.84Z"></path><path class="cls-1" d="M125.76,154.82h2.4v2.36h-2.4v-2.36Z"></path><path class="cls-1" d="M137.32,141.99h7.26c2.89,0,4.69,1.55,4.69,3.98,0,1.83-.82,3.34-2.68,3.85v.04c1.79.34,2.16,1.64,2.31,3.13.13,1.49.04,3.15.91,4.19h-2.29c-.58-.62-.26-2.26-.56-3.75-.22-1.49-.58-2.75-2.57-2.75h-5.01v6.49h-2.05v-15.2ZM143.65,148.99c1.92,0,3.56-.49,3.56-2.7,0-1.49-.82-2.6-2.74-2.6h-5.1v5.3h4.28Z"></path><path class="cls-1" d="M161.65,153.7c-.5,2.43-2.27,3.75-4.77,3.75-3.56,0-5.25-2.43-5.36-5.79,0-3.3,2.2-5.73,5.25-5.73,3.95,0,5.16,3.64,5.06,6.3h-8.36c-.06,1.92,1.04,3.62,3.48,3.62,1.51,0,2.57-.72,2.9-2.15h1.81ZM159.88,150.63c-.09-1.72-1.4-3.11-3.22-3.11-1.92,0-3.07,1.43-3.2,3.11h6.42Z"></path><path class="cls-1" d="M165.27,153.72c.06,1.62,1.49,2.13,3,2.13,1.15,0,2.7-.26,2.7-1.64s-1.82-1.64-3.65-2.04c-1.81-.4-3.65-1-3.65-3.11,0-2.21,2.23-3.13,4.17-3.13,2.46,0,4.43.77,4.58,3.45h-1.84c-.13-1.41-1.38-1.85-2.59-1.85-1.1,0-2.38.3-2.38,1.41,0,1.3,1.94,1.51,3.65,1.92,1.84.4,3.65,1,3.65,3.13,0,2.62-2.48,3.47-4.75,3.47-2.51,0-4.62-1-4.73-3.73h1.84Z"></path><path class="cls-1" d="M184.78,153.7c-.5,2.43-2.27,3.75-4.78,3.75-3.56,0-5.25-2.43-5.36-5.79,0-3.3,2.2-5.73,5.25-5.73,3.95,0,5.16,3.64,5.06,6.3h-8.36c-.07,1.92,1.04,3.62,3.48,3.62,1.51,0,2.57-.72,2.9-2.15h1.81ZM183.01,150.63c-.09-1.72-1.4-3.11-3.22-3.11-1.92,0-3.07,1.43-3.2,3.11h6.42Z"></path><path class="cls-1" d="M197.18,157.14c-.32.19-.73.3-1.32.3-.95,0-1.56-.51-1.56-1.7-1.02,1.17-2.38,1.7-3.93,1.7-2.03,0-3.69-.89-3.69-3.09,0-2.49,1.88-3.02,3.78-3.38,2.03-.38,3.76-.25,3.76-1.62,0-1.58-1.32-1.83-2.48-1.83-1.56,0-2.7.47-2.79,2.09h-1.84c.11-2.72,2.25-3.68,4.73-3.68,2.01,0,4.19.45,4.19,3.02v5.66c0,.85,0,1.23.58,1.23.15,0,.32-.02.56-.11v1.4ZM194.2,151.5c-.71.51-2.1.53-3.33.75-1.21.21-2.25.64-2.25,1.98,0,1.19,1.04,1.62,2.16,1.62,2.42,0,3.41-1.49,3.41-2.49v-1.85Z"></path><path class="cls-1" d="M199.15,146.18h1.73v2.32h.04c.89-1.77,2.12-2.64,4.11-2.58v1.92c-2.96,0-4.04,1.66-4.04,4.45v4.9h-1.84v-11Z"></path><path class="cls-1" d="M213.95,149.71c-.28-1.38-1.25-2.19-2.77-2.19-2.66,0-3.48,2.07-3.48,4.3,0,2.02.93,4.02,3.26,4.02,1.77,0,2.83-1.02,3.07-2.68h1.88c-.41,2.68-2.12,4.28-4.93,4.28-3.41,0-5.23-2.34-5.23-5.62s1.73-5.9,5.27-5.9c2.53,0,4.56,1.17,4.82,3.79h-1.9Z"></path><path class="cls-1" d="M218.18,141.99h1.84v5.81h.04c.6-1.32,2.18-1.87,3.52-1.87,2.94,0,3.85,1.66,3.85,4.02v7.24h-1.84v-7.45c0-1.34-.86-2.21-2.27-2.21-2.23,0-3.31,1.47-3.31,3.45v6.22h-1.84v-15.2Z"></path><path class="cls-1" d="M230.92,154.82h2.4v2.36h-2.4v-2.36Z"></path><path class="cls-1" d="M251.75,146.44c-.24-2.17-1.71-3.11-3.82-3.11-1.73,0-3.46.62-3.46,2.6,0,1.87,2.46,2.15,4.95,2.7,2.46.55,4.93,1.4,4.93,4.38,0,3.24-3.22,4.53-6.03,4.53-3.46,0-6.37-1.66-6.37-5.36h1.94c0,2.55,2.16,3.66,4.49,3.66,1.86,0,3.91-.58,3.91-2.77s-2.46-2.45-4.93-2.98-4.95-1.24-4.95-4.02c0-3.09,2.79-4.45,5.6-4.45,3.15,0,5.55,1.47,5.68,4.81h-1.95Z"></path><path class="cls-1" d="M266.1,157.19h-1.73v-1.75h-.04c-.78,1.36-2.03,2-3.63,2-2.94,0-3.85-1.66-3.85-4.02v-7.24h1.84v7.45c0,1.34.86,2.21,2.27,2.21,2.23,0,3.31-1.47,3.31-3.45v-6.22h1.84v11Z"></path><path class="cls-1" d="M269.03,146.18h1.84v1.49h.04c.61-1.21,2.03-1.75,3.57-1.75,3.44,0,5.14,2.68,5.14,5.79s-1.69,5.73-5.1,5.73c-1.14,0-2.79-.43-3.61-1.72h-.04v5.68h-1.84v-15.22ZM274.22,147.52c-2.46,0-3.41,2.09-3.41,4.15,0,2.17.99,4.17,3.52,4.17s3.35-2.11,3.35-4.26-1.08-4.07-3.46-4.07Z"></path><path class="cls-1" d="M281.95,146.18h1.84v1.49h.04c.61-1.21,2.03-1.75,3.57-1.75,3.44,0,5.14,2.68,5.14,5.79s-1.69,5.73-5.1,5.73c-1.15,0-2.79-.43-3.61-1.72h-.04v5.68h-1.84v-15.22ZM287.14,147.52c-2.46,0-3.41,2.09-3.41,4.15,0,2.17.99,4.17,3.52,4.17s3.35-2.11,3.35-4.26-1.08-4.07-3.46-4.07Z"></path><path class="cls-1" d="M299.73,145.93c3.54,0,5.42,2.53,5.42,5.77s-1.88,5.75-5.42,5.75-5.42-2.53-5.42-5.75,1.88-5.77,5.42-5.77ZM299.73,155.85c1.92,0,3.48-1.49,3.48-4.15s-1.56-4.17-3.48-4.17-3.48,1.49-3.48,4.17,1.56,4.15,3.48,4.15Z"></path><path class="cls-1" d="M307.25,146.18h1.73v2.32h.04c.89-1.77,2.12-2.64,4.11-2.58v1.92c-2.96,0-4.04,1.66-4.04,4.45v4.9h-1.84v-11Z"></path><path class="cls-1" d="M318.35,146.18h2.23v1.6h-2.23v6.83c0,.83.24.98,1.38.98h.84v1.6h-1.4c-1.9,0-2.66-.38-2.66-2.41v-7h-1.9v-1.6h1.9v-3.3h1.84v3.3Z"></path><path class="cls-1" d="M323.99,154.82h2.4v2.36h-2.4v-2.36Z"></path></g></svg>